# xmcd
#
# Track frame offsets: 
#        150
#        24020
#        44751
#        62696
#        81905
#        102163
#        125281
#        143227
#        161343
#        182933
#
# Disc length: 2717 seconds
#
# Revision: 0
# Processed by: cddbd v1.5.2PL0 Copyright (c) Steve Scherf et al.
# Submitted via: ExactAudioCopy v1.0b4
#
DISCID=7f0a9b0a
DTITLE=Melissa Neels Band - Shine
DYEAR=2009
DGENRE=Blues
TTITLE0=Anything For You
TTITLE1=Broadway
TTITLE2=Shine
TTITLE3=Norma Lee
TTITLE4=Alright
TTITLE5=Give It On Up To You
TTITLE6=Gonna Move
TTITLE7=Come Back Home
TTITLE8=Passion
TTITLE9=Picture Of You
EXTD=
EXTT0=
EXTT1=
EXTT2=
EXTT3=
EXTT4=
EXTT5=
EXTT6=
EXTT7=
EXTT8=
EXTT9=
PLAYORDER=
